<svg id="svg" version="1.1" xmlns="http://www.w3.org/2000/svg" xmlns:xlink="http://www.w3.org/1999/xlink" viewBox="17, 40, 335, 345"><g id="svgg" opacity="0.7"><path id="path0" d="M68.400 37.595 C 68.400 37.818,67.860 38.000,67.200 38.000 C 66.540 38.000,66.000 38.180,66.000 38.400 C 66.000 38.620,65.460 38.800,64.800 38.800 C 64.140 38.800,63.600 38.980,63.600 39.200 C 63.600 39.420,63.240 39.600,62.800 39.600 C 62.360 39.600,62.000 39.750,62.000 39.932 C 62.000 40.115,61.508 40.520,60.906 40.832 C 59.202 41.716,55.200 45.216,55.200 45.822 C 55.200 45.978,54.884 46.397,54.497 46.753 C 54.111 47.109,53.540 47.895,53.230 48.500 C 52.919 49.105,52.515 49.600,52.332 49.600 C 52.150 49.600,52.000 49.960,52.000 50.400 C 52.000 50.840,51.820 51.200,51.600 51.200 C 51.380 51.200,51.200 51.740,51.200 52.400 C 51.200 53.060,51.020 53.600,50.800 53.600 C 50.580 53.600,50.400 54.140,50.400 54.800 C 50.400 55.460,50.220 56.000,50.000 56.000 C 49.445 56.000,49.445 356.257,50.000 356.600 C 50.220 356.736,50.400 357.287,50.400 357.824 C 50.400 358.361,50.580 358.800,50.800 358.800 C 51.020 358.800,51.200 359.340,51.200 360.000 C 51.200 360.660,51.380 361.200,51.600 361.200 C 51.820 361.200,52.000 361.560,52.000 362.000 C 52.000 362.440,52.150 362.800,52.332 362.800 C 52.515 362.800,52.920 363.292,53.232 363.893 C 53.545 364.494,54.295 365.511,54.900 366.152 C 55.505 366.794,56.007 367.517,56.016 367.759 C 56.029 368.145,58.513 370.241,60.329 371.400 C 60.674 371.620,61.286 372.088,61.689 372.439 C 62.091 372.791,63.181 373.318,64.110 373.611 C 65.040 373.904,66.053 374.337,66.361 374.572 C 67.192 375.205,282.316 375.174,283.639 374.540 C 284.168 374.288,285.230 373.850,286.000 373.568 C 288.496 372.655,294.800 367.668,294.800 366.607 C 294.800 366.435,295.116 366.003,295.503 365.647 C 295.889 365.291,296.460 364.505,296.770 363.900 C 297.081 363.295,297.485 362.800,297.668 362.800 C 297.850 362.800,298.000 362.440,298.000 362.000 C 298.000 361.560,298.180 361.200,298.400 361.200 C 298.620 361.200,298.800 360.660,298.800 360.000 C 298.800 359.340,298.980 358.800,299.200 358.800 C 299.420 358.800,299.600 358.361,299.600 357.824 C 299.600 357.287,299.780 356.736,300.000 356.600 C 300.474 356.307,300.572 252.000,300.098 252.000 C 299.931 252.000,294.261 257.536,287.498 264.302 L 275.200 276.605 275.200 310.443 C 275.200 345.835,275.192 345.997,273.445 347.938 C 271.461 350.141,278.180 350.000,174.879 350.000 L 79.318 350.000 77.965 349.088 C 77.221 348.587,76.207 347.462,75.713 346.588 L 74.813 345.000 74.807 206.385 L 74.800 67.770 75.700 65.986 C 77.404 62.610,78.181 62.414,89.906 62.407 L 100.011 62.400 99.906 49.900 L 99.800 37.400 84.100 37.295 C 73.711 37.226,68.400 37.328,68.400 37.595 M112.668 37.465 C 112.521 37.613,112.400 43.283,112.400 50.067 L 112.400 62.400 175.006 62.400 L 237.611 62.400 237.506 49.900 L 237.400 37.400 175.168 37.299 C 140.940 37.243,112.815 37.318,112.668 37.465 M250.267 37.467 C 250.120 37.613,250.000 43.283,250.000 50.067 L 250.000 62.400 260.100 62.407 C 271.819 62.414,272.596 62.610,274.300 65.986 L 275.200 67.770 275.200 145.285 C 275.200 187.918,275.323 222.800,275.473 222.800 C 275.877 222.800,298.882 199.674,299.697 198.448 C 300.517 197.216,300.817 56.000,300.000 56.000 C 299.780 56.000,299.600 55.460,299.600 54.800 C 299.600 54.140,299.420 53.600,299.200 53.600 C 298.980 53.600,298.800 53.060,298.800 52.400 C 298.800 51.740,298.620 51.200,298.400 51.200 C 298.180 51.200,298.000 50.840,298.000 50.400 C 298.000 49.960,297.850 49.600,297.668 49.600 C 297.485 49.600,297.081 49.105,296.770 48.500 C 296.460 47.895,295.889 47.109,295.503 46.753 C 295.116 46.397,294.800 45.978,294.800 45.822 C 294.800 45.252,290.237 41.200,289.595 41.200 C 289.378 41.200,289.200 41.020,289.200 40.800 C 289.200 40.580,288.930 40.400,288.600 40.400 C 288.270 40.400,288.000 40.220,288.000 40.000 C 288.000 39.780,287.640 39.600,287.200 39.600 C 286.760 39.600,286.400 39.420,286.400 39.200 C 286.400 38.980,285.860 38.800,285.200 38.800 C 284.540 38.800,284.000 38.620,284.000 38.400 C 284.000 38.180,283.460 38.000,282.800 38.000 C 282.140 38.000,281.600 37.820,281.600 37.600 C 281.600 37.150,250.715 37.018,250.267 37.467 M140.506 130.100 C 136.009 134.555,130.784 139.775,128.893 141.700 C 124.719 145.950,125.477 145.978,120.759 141.400 C 116.039 136.820,113.738 136.415,112.611 139.966 C 112.119 141.515,121.681 152.170,124.280 152.970 C 125.894 153.467,127.518 152.074,139.909 139.568 C 154.308 125.035,154.308 125.036,151.893 122.786 C 149.946 120.972,149.300 121.386,140.506 130.100 M148.286 185.203 C 147.725 185.645,142.283 190.971,136.195 197.038 L 125.124 208.068 124.092 207.134 C 123.524 206.620,121.741 204.899,120.131 203.308 C 116.885 200.102,115.720 199.567,114.179 200.577 C 111.308 202.458,111.925 203.812,118.701 210.500 C 125.055 216.771,124.773 216.718,129.357 212.500 C 135.878 206.501,152.750 188.940,153.017 187.873 C 153.605 185.531,150.266 183.647,148.286 185.203 M263.896 252.304 L 217.194 299.007 221.600 303.400 L 226.006 307.793 272.603 261.197 C 298.231 235.569,319.200 214.327,319.200 213.991 C 319.200 213.399,311.478 205.600,310.891 205.600 C 310.730 205.600,289.583 226.617,263.896 252.304 M149.000 247.191 C 148.560 247.375,143.033 252.672,136.718 258.962 C 130.402 265.253,125.089 270.400,124.909 270.400 C 124.730 270.400,122.967 268.765,120.992 266.766 C 116.237 261.956,114.520 261.461,112.973 264.453 C 112.133 266.077,112.421 266.509,118.348 272.500 C 125.817 280.050,123.608 280.808,138.944 265.440 C 152.348 252.009,153.200 251.085,153.200 249.968 C 153.200 248.262,150.584 246.532,149.000 247.191 M203.724 304.500 C 202.743 305.810,199.000 318.303,199.000 320.267 C 199.000 323.324,201.070 325.769,204.069 326.256 C 205.837 326.543,220.800 321.790,220.800 320.941 C 220.800 320.499,204.692 304.000,204.260 304.000 C 204.171 304.000,203.929 304.225,203.724 304.500 " stroke="none" fill="#094870" fill-rule="evenodd"></path><path id="path1" d="M102.200 25.286 C 101.107 25.917,100.400 26.658,100.400 27.171 C 100.400 27.407,100.256 27.600,100.081 27.600 C 99.597 27.600,99.940 86.546,100.442 89.400 C 101.343 94.535,104.836 98.178,110.200 99.578 C 112.478 100.173,238.567 100.163,240.440 99.568 C 245.141 98.075,248.379 94.802,249.509 90.400 C 250.047 88.305,250.441 27.600,249.916 27.600 C 249.742 27.600,249.600 27.407,249.600 27.171 C 249.600 24.515,240.958 23.785,238.508 26.235 C 238.229 26.514,238.000 26.936,238.000 27.171 C 238.000 27.407,237.841 27.600,237.647 27.600 C 237.444 27.600,237.379 36.780,237.493 49.100 L 237.692 70.600 236.737 71.990 C 236.211 72.755,235.174 73.790,234.431 74.290 L 233.082 75.200 175.390 75.200 C 113.109 75.200,116.077 75.300,114.182 73.135 C 112.236 70.911,112.269 71.388,112.490 49.129 C 112.697 28.280,112.664 27.588,111.392 26.179 C 110.147 24.800,104.065 24.209,102.200 25.286 M337.200 177.254 C 337.200 177.589,347.571 187.896,347.739 187.727 C 347.839 187.628,345.815 185.443,343.241 182.873 C 338.689 178.327,337.200 176.942,337.200 177.254 M300.949 196.146 C 300.701 196.429,300.362 197.091,300.195 197.616 C 299.858 198.678,290.236 208.478,241.904 256.984 L 208.808 290.200 213.043 294.560 L 217.279 298.920 264.130 252.069 L 310.981 205.218 306.391 200.465 C 301.328 195.224,301.581 195.424,300.949 196.146 M273.091 260.709 C 247.411 286.390,226.400 307.529,226.400 307.686 C 226.400 307.842,228.296 309.876,230.614 312.205 L 234.829 316.440 267.227 284.320 C 285.047 266.654,299.914 252.137,300.266 252.060 C 300.618 251.984,302.683 250.094,304.854 247.860 C 307.025 245.627,309.320 243.284,309.954 242.653 C 315.830 236.805,325.246 227.356,326.241 226.307 C 326.923 225.588,327.868 224.735,328.341 224.412 C 329.602 223.548,329.506 223.404,324.435 218.508 L 319.782 214.017 273.091 260.709 " stroke="none" fill="#e97422" fill-rule="evenodd"></path><path id="path2" d="M78.346 63.661 C 77.547 64.125,76.512 65.218,76.046 66.090 L 75.200 67.676 75.200 206.303 L 75.200 344.930 76.186 346.613 C 78.252 350.137,67.809 349.800,175.000 349.800 C 282.191 349.800,271.748 350.137,273.814 346.613 L 274.800 344.930 274.800 311.665 C 274.800 293.369,274.709 278.400,274.597 278.400 C 274.434 278.400,265.943 286.669,259.906 292.706 C 259.246 293.366,255.376 297.236,251.306 301.306 C 241.307 311.306,241.800 310.810,238.273 314.409 C 236.553 316.164,234.808 317.600,234.396 317.600 C 233.984 317.600,233.536 317.780,233.400 318.000 C 233.264 318.220,232.634 318.400,232.000 318.400 C 231.366 318.400,230.736 318.580,230.600 318.800 C 230.464 319.020,230.001 319.200,229.571 319.200 C 228.816 319.200,228.426 319.344,226.505 320.338 C 226.013 320.592,225.336 320.800,225.001 320.800 C 224.666 320.800,223.628 321.142,222.696 321.560 C 221.763 321.978,220.640 322.414,220.200 322.530 C 219.760 322.646,217.870 323.288,216.000 323.957 C 214.130 324.625,212.105 325.179,211.500 325.186 C 210.895 325.194,210.400 325.380,210.400 325.600 C 210.400 325.820,209.860 326.000,209.200 326.000 C 208.540 326.000,208.000 326.180,208.000 326.400 C 208.000 326.629,206.799 326.800,205.197 326.800 C 201.199 326.800,198.397 324.044,198.402 320.116 C 198.404 318.510,202.800 304.585,203.779 303.085 C 204.096 302.598,205.293 299.338,206.440 295.840 L 208.524 289.480 241.662 256.278 L 274.800 223.076 274.800 145.376 L 274.800 67.676 273.950 66.083 C 272.303 62.997,271.480 62.800,260.246 62.800 L 250.400 62.800 250.400 77.376 C 250.400 86.663,250.255 92.043,250.000 92.200 C 249.780 92.336,249.600 92.797,249.600 93.224 C 249.600 93.651,249.432 94.000,249.227 94.000 C 249.022 94.000,248.737 94.369,248.594 94.820 C 248.258 95.879,245.879 98.258,244.820 98.594 C 244.369 98.737,244.000 99.022,244.000 99.227 C 244.000 99.432,243.651 99.600,243.224 99.600 C 242.797 99.600,242.336 99.780,242.200 100.000 C 241.818 100.619,111.197 100.545,109.046 99.925 C 105.714 98.964,102.245 95.913,100.720 92.600 C 99.825 90.654,99.797 90.223,99.672 76.700 L 99.545 62.800 89.672 62.809 C 80.368 62.818,79.716 62.867,78.346 63.661 M112.800 65.576 C 112.800 67.103,112.980 68.464,113.200 68.600 C 113.420 68.736,113.600 69.383,113.600 70.037 C 113.600 71.688,115.925 74.000,117.587 74.000 C 118.254 74.000,118.800 74.180,118.800 74.400 C 118.800 75.099,231.576 74.937,233.251 74.235 C 236.132 73.028,237.200 70.849,237.200 66.181 L 237.200 62.800 175.000 62.800 L 112.800 62.800 112.800 65.576 M152.275 122.500 C 154.588 125.056,154.193 125.745,145.232 134.779 L 137.600 142.471 137.596 147.936 C 137.593 152.874,137.500 153.592,136.633 155.400 C 135.398 157.976,133.016 160.445,130.794 161.450 C 127.987 162.721,127.276 162.800,118.593 162.800 C 106.900 162.800,104.160 161.659,100.863 155.414 L 99.800 153.400 99.800 143.800 C 99.800 134.473,99.827 134.143,100.765 132.200 C 101.778 130.100,105.267 126.400,106.234 126.400 C 106.545 126.400,106.800 126.220,106.800 126.000 C 106.800 125.780,107.149 125.600,107.576 125.600 C 108.003 125.600,108.464 125.420,108.600 125.200 C 109.229 124.182,127.800 124.720,130.220 125.826 C 132.628 126.928,135.631 129.745,136.415 131.637 C 137.077 133.235,136.771 133.441,143.000 127.200 C 149.168 121.020,150.380 120.406,152.275 122.500 M110.200 132.196 C 107.074 133.577,106.397 135.691,106.411 144.028 C 106.430 155.134,107.307 155.983,118.765 155.993 C 128.156 156.002,129.506 155.395,130.982 150.500 C 131.393 149.140,130.611 149.396,128.704 151.246 C 125.188 154.659,124.509 154.437,117.789 147.695 C 111.695 141.579,110.977 139.978,113.454 138.029 C 115.640 136.309,116.888 136.850,121.295 141.426 C 125.220 145.503,124.804 145.481,128.381 141.793 C 131.598 138.475,131.709 138.011,130.056 134.808 C 128.610 132.007,127.199 131.610,118.800 131.639 C 113.575 131.658,111.047 131.821,110.200 132.196 M227.345 138.255 C 228.743 139.652,228.773 141.663,227.418 143.018 L 226.436 144.000 193.800 144.000 L 161.164 144.000 160.182 143.018 C 158.827 141.663,158.857 139.652,160.255 138.255 L 161.309 137.200 193.800 137.200 L 226.291 137.200 227.345 138.255 M238.641 150.016 C 240.900 150.874,241.573 153.726,239.930 155.474 L 239.061 156.400 200.056 156.400 L 161.052 156.400 160.126 155.530 C 158.372 153.883,159.186 150.765,161.600 149.882 C 162.775 149.453,237.501 149.582,238.641 150.016 M152.098 184.791 C 154.908 187.002,153.974 188.691,145.028 197.586 L 137.600 204.971 137.600 210.499 C 137.600 215.672,137.533 216.160,136.548 218.113 C 135.450 220.292,132.321 223.600,131.358 223.600 C 131.051 223.600,130.800 223.736,130.800 223.903 C 130.800 224.806,127.152 225.200,118.800 225.200 C 110.448 225.200,106.800 224.806,106.800 223.903 C 106.800 223.736,106.545 223.600,106.234 223.600 C 105.235 223.600,101.658 219.831,100.714 217.783 C 99.842 215.892,99.800 215.355,99.800 206.200 L 99.800 196.600 100.863 194.586 C 102.272 191.918,104.722 189.448,107.082 188.318 C 109.427 187.196,125.560 186.695,128.600 187.650 C 131.249 188.483,136.379 192.591,136.406 193.901 C 136.445 195.801,137.347 195.219,142.915 189.698 C 149.157 183.509,149.938 183.092,152.098 184.791 M109.802 194.986 C 106.924 196.663,106.423 198.293,106.417 206.000 C 106.408 217.841,107.163 218.547,119.600 218.329 C 128.675 218.171,129.513 217.771,130.982 212.900 C 131.391 211.546,130.812 211.796,128.440 214.000 C 125.014 217.182,124.785 217.104,118.031 210.459 C 111.687 204.216,110.790 202.273,113.449 200.531 C 115.684 199.066,116.967 199.584,120.962 203.562 C 125.349 207.931,124.801 207.885,128.381 204.193 C 132.075 200.383,131.840 197.292,127.679 194.955 C 125.114 193.514,112.290 193.537,109.802 194.986 M227.368 200.770 C 228.696 202.018,228.770 204.155,227.530 205.474 L 226.661 206.400 193.856 206.400 L 161.052 206.400 160.126 205.530 C 158.372 203.883,159.182 200.777,161.600 199.879 C 161.930 199.756,176.631 199.688,194.268 199.728 L 226.336 199.800 227.368 200.770 M239.874 213.270 C 241.612 214.902,240.939 217.911,238.641 218.784 C 237.125 219.361,162.875 219.361,161.359 218.784 C 159.100 217.926,158.427 215.074,160.070 213.326 L 160.939 212.400 199.944 212.400 L 238.948 212.400 239.874 213.270 M152.669 247.849 C 154.340 250.400,153.968 251.003,145.438 259.572 L 137.600 267.446 137.600 272.965 C 137.600 279.185,137.003 281.097,134.139 284.052 C 130.992 287.299,129.691 287.600,118.800 287.600 L 109.150 287.600 106.959 286.527 C 100.933 283.577,99.800 280.771,99.800 268.800 C 99.800 256.801,100.975 253.937,107.143 250.908 L 109.400 249.800 118.800 249.800 C 130.395 249.800,133.117 250.784,136.075 256.048 C 137.249 258.137,136.957 258.300,142.935 252.200 L 148.227 246.800 150.104 246.800 C 151.689 246.800,152.089 246.964,152.669 247.849 M110.021 257.332 C 106.915 258.921,106.425 260.459,106.411 268.651 C 106.392 280.063,107.504 281.188,118.800 281.188 C 125.565 281.188,127.283 280.838,129.105 279.089 C 130.169 278.068,131.464 274.930,131.009 274.476 C 130.799 274.266,127.189 277.431,126.874 278.100 C 125.620 280.769,112.400 269.476,112.400 265.735 C 112.400 260.886,116.020 261.090,121.257 266.236 L 125.161 270.072 128.169 266.936 C 131.386 263.583,131.465 263.397,130.667 261.103 C 129.280 257.123,127.421 256.397,118.651 256.411 C 112.325 256.422,111.664 256.492,110.021 257.332 M211.973 263.562 C 213.114 265.164,213.037 266.838,211.768 268.030 L 210.736 269.000 187.068 269.117 C 174.051 269.182,162.814 269.129,162.098 268.999 C 159.366 268.504,158.219 265.296,160.070 263.326 L 160.939 262.400 186.042 262.400 L 211.146 262.400 211.973 263.562 M199.093 275.586 C 200.733 277.114,200.744 279.275,199.120 280.789 C 198.271 281.579,197.780 281.600,179.825 281.600 L 161.400 281.599 160.300 280.653 C 158.875 279.427,158.783 277.216,160.100 275.810 L 161.000 274.849 179.625 274.824 C 197.607 274.801,198.278 274.827,199.093 275.586 " stroke="none" fill="#f1f1f1" fill-rule="evenodd"></path><path id="path3" d="M89.872 62.700 L 99.545 62.814 99.672 76.707 C 99.797 90.223,99.825 90.654,100.720 92.600 C 102.245 95.913,105.714 98.964,109.046 99.925 C 111.197 100.545,241.818 100.619,242.200 100.000 C 242.336 99.780,242.797 99.600,243.224 99.600 C 243.651 99.600,244.000 99.432,244.000 99.227 C 244.000 99.022,244.369 98.737,244.820 98.594 C 245.879 98.258,248.258 95.879,248.594 94.820 C 248.737 94.369,249.022 94.000,249.227 94.000 C 249.432 94.000,249.600 93.651,249.600 93.224 C 249.600 92.797,249.780 92.336,250.000 92.200 C 250.258 92.041,250.369 86.725,250.313 77.276 L 250.225 62.600 249.992 76.400 C 249.864 83.990,249.601 90.650,249.407 91.200 C 248.024 95.126,244.721 98.208,240.440 99.568 C 238.567 100.163,112.478 100.173,110.200 99.578 C 101.434 97.290,100.000 93.833,100.000 74.980 L 100.000 62.400 90.100 62.493 L 80.200 62.585 89.872 62.700 M181.100 62.700 L 237.200 62.803 237.200 66.183 C 237.200 70.849,236.131 73.028,233.251 74.235 C 231.576 74.937,118.800 75.099,118.800 74.400 C 118.800 74.180,118.254 74.000,117.587 74.000 C 115.960 74.000,113.600 71.688,113.600 70.093 C 113.600 69.470,113.429 68.789,113.220 68.580 C 113.012 68.371,112.777 66.940,112.699 65.400 C 112.574 62.946,112.547 63.082,112.478 66.505 C 112.398 70.500,112.595 71.260,114.200 73.135 C 116.052 75.299,113.108 75.200,175.390 75.200 L 233.082 75.200 234.431 74.290 C 237.055 72.522,237.600 71.190,237.600 66.541 L 237.600 62.400 181.300 62.499 L 125.000 62.597 181.100 62.700 M264.100 62.694 C 265.145 62.776,266.855 62.776,267.900 62.694 C 268.945 62.612,268.090 62.544,266.000 62.544 C 263.910 62.544,263.055 62.612,264.100 62.694 M147.762 122.500 C 147.001 123.399,147.001 123.399,147.831 122.700 C 149.002 121.715,151.130 121.808,152.374 122.900 L 153.400 123.800 152.430 122.700 C 151.165 121.265,148.890 121.167,147.762 122.500 M108.590 125.216 C 108.421 125.489,108.723 125.538,109.466 125.360 C 110.999 124.992,111.144 124.800,109.890 124.800 C 109.317 124.800,108.732 124.987,108.590 125.216 M126.833 124.944 C 126.925 125.023,127.540 125.208,128.200 125.356 C 129.076 125.552,129.238 125.515,128.800 125.218 C 128.260 124.853,126.432 124.598,126.833 124.944 M132.056 127.166 C 132.575 127.587,133.077 127.855,133.171 127.761 C 133.376 127.557,131.944 126.431,131.456 126.413 C 131.266 126.406,131.536 126.745,132.056 127.166 M102.929 128.900 C 102.484 129.395,101.976 130.070,101.801 130.400 C 101.463 131.037,101.555 130.950,103.176 129.100 C 103.706 128.495,104.049 128.000,103.939 128.000 C 103.829 128.000,103.375 128.405,102.929 128.900 M135.800 131.200 C 136.141 131.860,136.511 132.400,136.621 132.400 C 136.731 132.400,136.541 131.860,136.200 131.200 C 135.859 130.540,135.489 130.000,135.379 130.000 C 135.269 130.000,135.459 130.540,135.800 131.200 M138.094 132.012 C 137.375 132.665,136.937 133.200,137.119 133.200 C 137.301 133.200,137.968 132.660,138.600 132.000 C 140.070 130.465,139.786 130.472,138.094 132.012 M100.556 132.643 C 100.224 133.437,100.026 134.159,100.114 134.248 C 100.203 134.336,100.559 133.687,100.905 132.804 C 101.689 130.809,101.382 130.668,100.556 132.643 M115.100 131.498 C 117.135 131.571,120.465 131.571,122.500 131.498 C 124.535 131.425,122.870 131.366,118.800 131.366 C 114.730 131.366,113.065 131.425,115.100 131.498 M127.400 132.252 C 128.060 132.593,129.021 133.351,129.536 133.936 C 130.369 134.884,130.421 134.899,130.010 134.079 C 129.553 133.165,127.370 131.590,126.600 131.618 C 126.380 131.625,126.740 131.911,127.400 132.252 M108.000 133.400 C 107.483 133.950,107.227 134.394,107.430 134.387 C 107.772 134.376,109.421 132.400,109.088 132.400 C 109.006 132.400,108.517 132.850,108.000 133.400 M99.767 143.800 C 99.767 147.980,99.826 149.636,99.898 147.479 C 99.971 145.323,99.970 141.903,99.898 139.879 C 99.825 137.856,99.766 139.620,99.767 143.800 M114.900 137.476 C 115.285 137.576,115.915 137.576,116.300 137.476 C 116.685 137.375,116.370 137.293,115.600 137.293 C 114.830 137.293,114.515 137.375,114.900 137.476 M161.062 137.500 C 160.960 137.665,175.692 137.800,193.800 137.800 C 211.908 137.800,226.640 137.665,226.538 137.500 C 226.436 137.335,211.704 137.200,193.800 137.200 C 175.896 137.200,161.164 137.335,161.062 137.500 M180.900 149.900 C 191.405 149.959,208.595 149.959,219.100 149.900 C 229.605 149.841,221.010 149.792,200.000 149.792 C 178.990 149.792,170.395 149.841,180.900 149.900 M107.200 153.088 C 107.200 153.886,110.600 156.333,111.064 155.869 C 111.172 155.761,110.845 155.541,110.338 155.380 C 109.831 155.219,108.917 154.554,108.308 153.902 C 107.699 153.249,107.200 152.883,107.200 153.088 M127.800 155.010 C 126.920 155.552,126.359 155.997,126.553 155.998 C 126.963 156.000,129.600 154.416,129.600 154.167 C 129.600 153.913,129.521 153.951,127.800 155.010 M159.200 154.264 C 159.200 154.482,159.695 155.097,160.300 155.630 L 161.400 156.600 160.400 155.400 C 159.850 154.740,159.355 154.125,159.300 154.033 C 159.245 153.942,159.200 154.045,159.200 154.264 M239.634 155.353 L 238.669 156.600 239.813 155.512 C 240.443 154.914,240.877 154.353,240.779 154.265 C 240.680 154.177,240.165 154.667,239.634 155.353 M135.452 156.865 C 134.853 157.780,134.653 158.288,135.008 157.994 C 135.612 157.492,136.985 155.200,136.681 155.200 C 136.605 155.200,136.052 155.949,135.452 156.865 M115.320 156.298 C 117.255 156.372,120.315 156.371,122.120 156.297 C 123.924 156.223,122.340 156.163,118.600 156.164 C 114.860 156.164,113.384 156.225,115.320 156.298 M104.400 159.885 C 104.400 160.234,105.999 161.338,106.200 161.128 C 106.267 161.057,105.889 160.677,105.361 160.281 C 104.832 159.886,104.400 159.708,104.400 159.885 M108.936 162.494 C 109.191 162.656,113.630 162.755,118.800 162.716 C 128.817 162.639,127.612 162.477,115.736 162.305 C 111.741 162.247,108.681 162.332,108.936 162.494 M149.300 184.276 C 149.685 184.376,150.315 184.376,150.700 184.276 C 151.085 184.175,150.770 184.093,150.000 184.093 C 149.230 184.093,148.915 184.175,149.300 184.276 M142.572 190.004 C 139.476 193.082,137.049 195.600,137.177 195.600 C 137.306 195.600,139.926 193.080,143.000 190.000 C 146.074 186.920,148.502 184.402,148.395 184.404 C 148.288 184.406,145.667 186.926,142.572 190.004 M111.800 187.472 C 117.493 187.752,128.688 187.775,128.264 187.506 C 128.009 187.344,123.660 187.244,118.600 187.283 C 113.540 187.322,110.480 187.407,111.800 187.472 M309.600 187.538 C 309.600 187.941,306.049 191.612,303.684 193.654 C 302.758 194.454,302.000 195.328,302.000 195.595 C 302.000 196.827,329.202 223.296,329.896 222.740 C 330.267 222.443,332.266 220.514,334.337 218.454 L 338.103 214.707 324.354 200.954 C 311.985 188.581,309.600 186.412,309.600 187.538 M107.700 188.012 C 106.361 188.551,106.611 188.824,108.000 188.340 C 108.660 188.110,109.200 187.849,109.200 187.761 C 109.200 187.524,108.713 187.605,107.700 188.012 M105.029 189.409 C 104.605 189.729,104.335 190.068,104.429 190.161 C 104.523 190.255,105.025 189.987,105.544 189.566 C 106.638 188.679,106.179 188.539,105.029 189.409 M151.826 190.300 C 150.962 191.405,150.893 191.590,151.563 191.004 C 152.365 190.304,153.423 188.800,153.114 188.800 C 153.051 188.800,152.472 189.475,151.826 190.300 M134.013 191.422 C 134.996 192.534,136.028 193.794,136.306 194.222 C 136.584 194.650,136.554 194.460,136.239 193.800 C 135.924 193.140,134.892 191.880,133.946 191.000 L 132.227 189.400 134.013 191.422 M109.326 194.780 C 108.625 195.207,107.830 195.970,107.560 196.475 C 107.185 197.175,107.376 197.085,108.365 196.096 C 109.078 195.383,109.907 194.800,110.207 194.800 C 110.507 194.800,110.864 194.620,111.000 194.400 C 111.384 193.778,110.722 193.928,109.326 194.780 M126.400 194.197 C 126.400 194.264,127.165 194.704,128.100 195.175 C 129.667 195.963,129.722 195.968,128.800 195.236 C 127.909 194.529,126.400 193.876,126.400 194.197 M146.000 196.200 C 145.028 197.190,144.323 198.000,144.433 198.000 C 144.543 198.000,145.428 197.190,146.400 196.200 C 147.372 195.210,148.077 194.400,147.967 194.400 C 147.857 194.400,146.972 195.210,146.000 196.200 M99.767 206.200 C 99.767 210.380,99.826 212.036,99.898 209.879 C 99.971 207.723,99.970 204.303,99.898 202.279 C 99.825 200.256,99.766 202.020,99.767 206.200 M177.930 199.900 C 186.801 199.960,201.201 199.960,209.930 199.900 C 218.658 199.840,211.400 199.791,193.800 199.791 C 176.200 199.791,169.058 199.840,177.930 199.900 M120.792 203.700 C 122.878 205.845,124.772 207.600,125.002 207.600 C 125.441 207.600,131.200 201.962,131.200 201.533 C 131.200 201.397,129.910 202.616,128.332 204.243 C 124.806 207.879,125.371 207.935,120.808 203.500 L 117.000 199.800 120.792 203.700 M227.049 200.800 C 227.516 201.350,227.997 202.070,228.118 202.400 C 228.305 202.914,228.341 202.909,228.368 202.370 C 228.386 202.023,227.905 201.303,227.300 200.770 L 226.200 199.800 227.049 200.800 M139.385 202.900 L 137.400 205.000 139.500 203.015 C 140.655 201.923,141.600 200.978,141.600 200.915 C 141.600 200.617,141.229 200.949,139.385 202.900 M228.032 203.974 C 228.014 204.290,227.600 205.010,227.111 205.574 L 226.223 206.600 227.359 205.543 C 227.984 204.962,228.398 204.242,228.279 203.943 C 228.105 203.505,228.057 203.511,228.032 203.974 M159.200 204.264 C 159.200 204.482,159.695 205.097,160.300 205.630 L 161.400 206.600 160.400 205.400 C 159.850 204.740,159.355 204.125,159.300 204.033 C 159.245 203.942,159.200 204.045,159.200 204.264 M160.001 213.398 C 159.486 213.948,159.139 214.464,159.232 214.546 C 159.324 214.628,159.819 214.178,160.330 213.547 C 161.476 212.135,161.274 212.044,160.001 213.398 M239.634 213.447 C 240.165 214.133,240.680 214.623,240.779 214.535 C 240.877 214.447,240.443 213.886,239.813 213.288 L 238.669 212.200 239.634 213.447 M106.412 213.600 C 106.412 213.930,106.587 214.470,106.800 214.800 C 107.145 215.333,107.188 215.333,107.188 214.800 C 107.188 214.470,107.013 213.930,106.800 213.600 C 106.455 213.067,106.412 213.067,106.412 213.600 M123.462 215.700 C 123.564 215.865,124.256 216.000,125.000 216.000 C 125.744 216.000,126.436 215.865,126.538 215.700 C 126.640 215.535,125.948 215.400,125.000 215.400 C 124.052 215.400,123.360 215.535,123.462 215.700 M128.846 216.701 C 128.101 217.463,127.833 217.903,128.250 217.680 C 129.134 217.207,130.604 215.660,130.364 215.456 C 130.274 215.379,129.591 215.939,128.846 216.701 M100.235 216.400 C 100.596 217.856,102.174 220.477,103.244 221.400 C 103.945 222.005,103.891 221.858,103.023 220.800 C 102.391 220.030,101.449 218.500,100.930 217.400 C 100.412 216.300,100.099 215.850,100.235 216.400 M108.287 216.809 C 108.995 217.551,109.642 218.078,109.725 217.979 C 109.808 217.881,109.229 217.273,108.438 216.629 L 107.000 215.458 108.287 216.809 M110.938 218.494 C 111.192 218.656,114.730 218.788,118.800 218.788 C 122.870 218.788,126.408 218.656,126.662 218.494 C 126.916 218.332,123.378 218.200,118.800 218.200 C 114.222 218.200,110.684 218.332,110.938 218.494 M180.900 219.100 C 191.405 219.159,208.595 219.159,219.100 219.100 C 229.605 219.041,221.010 218.992,200.000 218.992 C 178.990 218.992,170.395 219.041,180.900 219.100 M241.761 256.153 L 208.523 289.482 206.443 295.824 C 205.299 299.312,203.996 302.759,203.548 303.484 C 203.100 304.209,202.825 305.026,202.935 305.301 C 203.063 305.618,203.148 305.562,203.168 305.149 C 203.285 302.752,204.228 303.411,212.790 311.869 C 222.138 321.104,222.275 321.334,219.000 322.296 C 217.900 322.620,216.640 323.038,216.200 323.227 C 215.760 323.415,214.410 323.885,213.200 324.271 C 211.990 324.658,211.294 325.034,211.653 325.107 C 212.013 325.181,213.903 324.678,215.853 323.991 C 217.804 323.303,219.760 322.646,220.200 322.530 C 220.640 322.414,221.763 321.978,222.696 321.560 C 223.628 321.142,224.666 320.800,225.001 320.800 C 225.336 320.800,225.968 320.620,226.405 320.400 C 226.842 320.180,227.558 319.820,227.995 319.600 C 228.432 319.380,229.141 319.200,229.571 319.200 C 230.001 319.200,230.464 319.020,230.600 318.800 C 230.736 318.580,231.366 318.400,232.000 318.400 C 232.634 318.400,233.264 318.220,233.400 318.000 C 233.536 317.780,233.984 317.600,234.396 317.600 C 234.808 317.600,236.553 316.164,238.273 314.409 C 241.800 310.810,241.307 311.306,251.306 301.306 C 255.376 297.236,259.222 293.389,259.853 292.757 C 260.484 292.124,264.105 288.549,267.900 284.812 C 271.695 281.075,274.800 277.699,274.800 277.310 C 274.800 276.891,266.665 284.736,254.846 296.554 L 234.892 316.505 230.746 312.476 C 228.466 310.259,224.485 306.421,221.900 303.945 C 219.315 301.470,217.200 299.308,217.200 299.142 C 217.200 298.975,215.312 296.895,213.004 294.519 L 208.808 290.200 242.004 256.994 C 269.941 229.049,276.097 222.692,275.100 222.812 C 275.045 222.819,260.043 237.822,241.761 256.153 M108.800 224.782 C 109.130 225.005,109.745 225.191,110.167 225.194 C 111.190 225.202,110.871 224.973,109.400 224.644 C 108.524 224.448,108.362 224.485,108.800 224.782 M127.600 224.800 C 126.776 225.064,126.741 225.126,127.400 225.154 C 127.840 225.173,128.470 225.013,128.800 224.800 C 129.501 224.347,129.014 224.347,127.600 224.800 M145.860 249.268 L 143.400 251.735 146.000 249.388 C 147.430 248.097,148.675 246.987,148.767 246.920 C 148.858 246.854,148.795 246.800,148.627 246.800 C 148.458 246.800,147.213 247.910,145.860 249.268 M115.100 249.898 C 117.135 249.971,120.465 249.971,122.500 249.898 C 124.535 249.825,122.870 249.766,118.800 249.766 C 114.730 249.766,113.065 249.825,115.100 249.898 M131.200 251.468 C 131.750 251.848,133.069 253.036,134.130 254.109 C 135.192 255.182,135.876 255.716,135.651 255.295 C 135.120 254.304,132.336 251.792,131.135 251.221 C 130.273 250.811,130.278 250.831,131.200 251.468 M145.215 259.385 C 140.937 263.667,137.519 267.222,137.619 267.285 C 137.718 267.348,141.305 263.845,145.589 259.500 C 149.873 255.155,153.291 251.600,153.185 251.600 C 153.079 251.600,149.492 255.103,145.215 259.385 M103.381 253.700 L 101.800 255.400 103.500 253.819 C 104.435 252.949,105.200 252.184,105.200 252.119 C 105.200 251.816,104.852 252.119,103.381 253.700 M136.467 257.387 C 136.715 257.931,137.064 258.284,137.243 258.174 C 137.422 258.063,137.266 257.619,136.895 257.186 C 136.011 256.153,135.923 256.194,136.467 257.387 M128.000 257.322 C 128.000 257.392,128.563 257.979,129.250 258.625 C 130.125 259.448,130.347 259.548,129.991 258.959 C 129.551 258.233,128.000 256.957,128.000 257.322 M130.412 260.400 C 130.412 260.730,130.587 261.270,130.800 261.600 C 131.145 262.133,131.188 262.133,131.188 261.600 C 131.188 261.270,131.013 260.730,130.800 260.400 C 130.455 259.867,130.412 259.867,130.412 260.400 M99.766 268.800 C 99.766 272.870,99.825 274.535,99.898 272.500 C 99.971 270.465,99.971 267.135,99.898 265.100 C 99.825 263.065,99.766 264.730,99.766 268.800 M120.780 266.200 C 122.907 268.290,124.747 270.000,124.868 270.000 C 124.989 270.000,123.347 268.290,121.220 266.200 C 119.093 264.110,117.253 262.400,117.132 262.400 C 117.011 262.400,118.653 264.110,120.780 266.200 M160.001 263.398 C 159.486 263.948,159.139 264.464,159.232 264.546 C 159.324 264.628,159.819 264.178,160.330 263.547 C 161.476 262.135,161.274 262.044,160.001 263.398 M128.985 266.100 L 127.000 268.200 129.100 266.215 C 130.255 265.123,131.200 264.178,131.200 264.115 C 131.200 263.817,130.829 264.149,128.985 266.100 M212.464 265.574 C 212.428 266.343,212.009 267.400,211.511 267.974 L 210.623 269.000 211.741 267.961 C 212.643 267.124,212.828 266.658,212.694 265.561 L 212.528 264.200 212.464 265.574 M112.400 267.041 C 112.400 267.247,114.245 269.212,116.500 271.408 L 120.600 275.400 116.600 271.213 C 114.400 268.910,112.555 266.945,112.500 266.846 C 112.445 266.747,112.400 266.835,112.400 267.041 M173.900 269.100 C 180.555 269.161,191.445 269.161,198.100 269.100 C 204.755 269.038,199.310 268.988,186.000 268.988 C 172.690 268.988,167.245 269.038,173.900 269.100 M128.976 275.709 L 127.000 277.800 128.993 276.000 C 130.088 275.010,131.063 274.155,131.159 274.100 C 131.255 274.045,131.247 273.914,131.143 273.809 C 131.038 273.704,130.063 274.559,128.976 275.709 M107.656 278.741 C 107.910 279.148,108.497 279.711,108.959 279.991 C 109.548 280.347,109.448 280.125,108.625 279.250 C 107.288 277.827,106.986 277.669,107.656 278.741 M128.975 279.300 L 127.800 280.600 129.100 279.425 C 130.312 278.330,130.584 278.000,130.275 278.000 C 130.206 278.000,129.621 278.585,128.975 279.300 M198.993 280.408 C 198.277 281.199,197.883 281.213,179.569 281.108 C 169.288 281.048,160.960 281.135,161.062 281.300 C 161.571 282.124,198.220 281.627,199.125 280.784 C 199.933 280.031,200.202 279.600,199.862 279.600 C 199.786 279.600,199.395 279.963,198.993 280.408 M101.221 281.135 C 101.792 282.336,104.304 285.120,105.295 285.651 C 105.716 285.876,105.182 285.192,104.109 284.130 C 103.036 283.069,101.848 281.750,101.468 281.200 C 100.831 280.278,100.811 280.273,101.221 281.135 M110.400 280.800 C 110.730 281.013,111.270 281.188,111.600 281.188 C 112.133 281.188,112.133 281.145,111.600 280.800 C 111.270 280.587,110.730 280.412,110.400 280.412 C 109.867 280.412,109.867 280.455,110.400 280.800 M133.721 283.847 C 132.577 285.034,131.963 285.834,132.355 285.624 C 133.074 285.239,136.000 282.169,136.000 281.799 C 136.000 281.490,135.929 281.553,133.721 283.847 M199.514 323.804 C 199.741 324.247,200.348 324.966,200.863 325.402 C 201.767 326.166,201.765 326.152,200.806 324.997 C 199.213 323.079,199.079 322.955,199.514 323.804 M209.200 325.600 C 208.715 325.914,208.772 325.989,209.500 325.994 C 209.995 325.997,210.400 325.820,210.400 325.600 C 210.400 325.099,209.976 325.099,209.200 325.600 M202.000 326.400 C 202.000 326.620,202.405 326.797,202.900 326.794 C 203.628 326.789,203.685 326.714,203.200 326.400 C 202.424 325.899,202.000 325.899,202.000 326.400 M206.800 326.400 C 206.315 326.714,206.372 326.789,207.100 326.794 C 207.595 326.797,208.000 326.620,208.000 326.400 C 208.000 325.899,207.576 325.899,206.800 326.400 M269.600 349.600 C 268.776 349.864,268.741 349.926,269.400 349.954 C 269.840 349.973,270.470 349.813,270.800 349.600 C 271.501 349.147,271.014 349.147,269.600 349.600 " stroke="none" fill="#f3cca2" fill-rule="evenodd"></path><path id="path4" d="M115.500 62.698 C 117.315 62.772,120.285 62.772,122.100 62.698 C 123.915 62.623,122.430 62.563,118.800 62.563 C 115.170 62.563,113.685 62.623,115.500 62.698 M253.119 62.698 C 254.944 62.772,257.824 62.772,259.519 62.697 C 261.214 62.622,259.720 62.561,256.200 62.562 C 252.680 62.562,251.294 62.624,253.119 62.698 M74.998 206.400 C 74.998 282.850,75.044 314.125,75.100 275.900 C 75.156 237.675,75.156 175.125,75.100 136.900 C 75.044 98.675,74.998 129.950,74.998 206.400 M274.996 145.200 C 274.996 187.990,275.043 205.495,275.100 184.100 C 275.157 162.705,275.157 127.695,275.100 106.300 C 275.043 84.905,274.996 102.410,274.996 145.200 M109.400 125.347 C 101.505 127.921,99.911 131.138,100.080 144.157 C 100.232 155.848,101.429 158.680,107.389 161.456 C 110.517 162.913,127.149 162.896,130.200 161.433 C 135.665 158.813,137.718 154.765,137.522 147.000 L 137.400 142.200 132.399 147.200 C 129.649 149.950,128.254 151.397,129.299 150.415 L 131.200 148.630 131.200 149.961 C 131.200 154.624,128.445 156.163,119.784 156.338 C 107.170 156.593,106.400 155.861,106.400 143.613 C 106.400 131.851,107.056 131.200,118.902 131.200 C 128.282 131.200,131.172 132.740,131.193 137.752 L 131.200 139.303 134.182 136.392 L 137.163 133.480 136.099 131.640 C 134.669 129.166,132.653 127.318,130.000 126.051 C 127.368 124.794,112.641 124.290,109.400 125.347 M146.994 132.500 L 141.800 137.800 147.100 132.606 C 152.023 127.781,152.581 127.200,152.294 127.200 C 152.236 127.200,149.851 129.585,146.994 132.500 M160.410 138.390 C 158.660 140.140,159.178 142.755,161.447 143.618 C 162.800 144.132,224.802 144.132,226.155 143.617 C 228.449 142.745,228.848 139.096,226.771 137.985 C 225.144 137.114,161.297 137.503,160.410 138.390 M160.765 150.513 C 159.019 151.854,158.831 153.501,160.236 155.169 L 161.271 156.400 200.000 156.400 L 238.729 156.400 239.764 155.169 C 241.082 153.603,241.076 152.385,239.745 151.055 L 238.691 150.000 200.045 150.013 C 170.297 150.023,161.254 150.138,160.765 150.513 M322.300 175.917 C 321.035 176.509,320.000 177.104,320.000 177.240 C 320.000 177.376,317.934 179.537,315.409 182.044 C 312.883 184.550,310.813 186.781,310.809 187.002 C 310.804 187.223,316.928 193.523,324.418 201.002 L 338.037 214.600 339.213 213.300 C 339.860 212.585,340.571 212.000,340.794 212.000 C 341.017 212.000,341.200 211.826,341.200 211.613 C 341.200 211.110,343.910 208.400,344.413 208.400 C 344.626 208.400,344.800 208.119,344.800 207.776 C 344.800 207.433,344.980 207.264,345.200 207.400 C 345.420 207.536,345.600 207.478,345.600 207.272 C 345.600 207.065,346.282 206.194,347.115 205.335 C 350.010 202.352,351.603 195.155,350.047 192.095 C 349.852 191.713,349.447 190.860,349.147 190.200 C 348.846 189.540,346.035 186.392,342.900 183.205 C 339.765 180.018,337.200 177.273,337.200 177.105 C 337.200 176.937,336.930 176.800,336.600 176.800 C 336.270 176.800,336.000 176.640,336.000 176.443 C 336.000 176.095,334.097 175.404,333.500 175.534 C 333.335 175.570,333.200 175.420,333.200 175.200 C 333.200 174.223,324.731 174.781,322.300 175.917 M151.926 185.512 C 152.516 186.124,153.076 186.574,153.168 186.511 C 153.399 186.355,151.535 184.400,151.156 184.400 C 150.988 184.400,151.335 184.901,151.926 185.512 M107.393 188.559 C 101.455 191.262,100.232 194.151,100.080 205.843 C 99.868 222.169,102.814 225.203,118.877 225.198 C 133.244 225.193,137.250 221.981,137.530 210.238 L 137.663 204.676 132.231 209.807 C 129.244 212.629,126.800 215.036,126.800 215.155 C 126.800 215.275,127.790 214.395,129.000 213.200 L 131.200 211.027 131.200 212.265 C 131.200 217.380,128.520 218.800,118.869 218.800 C 111.187 218.800,109.781 218.529,108.150 216.735 C 106.511 214.932,106.400 214.278,106.400 206.410 C 106.400 194.262,106.652 194.004,118.540 194.001 C 128.766 194.000,130.567 194.834,131.192 199.864 L 131.400 201.535 137.425 195.667 C 140.739 192.440,142.039 191.150,140.313 192.800 C 136.956 196.010,137.121 195.982,135.802 193.552 C 134.864 191.824,131.322 188.917,129.326 188.237 C 126.056 187.122,110.033 187.358,107.393 188.559 M144.796 197.100 L 137.400 204.600 144.900 197.204 C 151.868 190.332,152.581 189.600,152.296 189.600 C 152.239 189.600,148.864 192.975,144.796 197.100 M160.765 200.513 C 159.019 201.854,158.831 203.501,160.236 205.169 L 161.271 206.400 193.766 206.400 L 226.261 206.400 227.197 205.403 C 227.752 204.813,228.133 203.915,228.133 203.200 C 228.133 202.485,227.752 201.587,227.197 200.997 L 226.261 200.000 193.830 200.013 C 168.968 200.022,161.252 200.139,160.765 200.513 M118.000 210.200 C 120.743 212.950,123.078 215.200,123.188 215.200 C 123.298 215.200,121.143 212.950,118.400 210.200 C 115.657 207.450,113.322 205.200,113.212 205.200 C 113.102 205.200,115.257 207.450,118.000 210.200 M126.306 206.611 C 125.484 207.375,124.954 208.000,125.127 208.000 C 125.301 208.000,126.054 207.370,126.800 206.600 C 128.541 204.803,128.243 204.810,126.306 206.611 M314.970 209.283 C 317.297 211.529,319.214 213.644,319.232 213.983 C 319.256 214.457,319.314 214.473,319.480 214.055 C 319.691 213.524,311.792 205.200,311.077 205.200 C 310.892 205.200,312.644 207.038,314.970 209.283 M160.236 213.631 C 159.087 214.995,158.977 215.634,159.665 216.926 C 160.687 218.844,159.155 218.774,200.045 218.787 L 238.691 218.800 239.745 217.745 C 241.076 216.415,241.082 215.197,239.764 213.631 L 238.729 212.400 200.000 212.400 L 161.271 212.400 160.236 213.631 M142.417 252.983 L 137.045 258.366 136.094 256.683 C 134.416 253.714,131.935 251.612,128.800 250.506 C 126.838 249.814,110.722 249.823,108.800 250.518 C 104.686 252.004,102.021 254.671,100.521 258.800 C 99.823 260.720,99.811 276.832,100.506 278.800 C 102.967 285.775,106.719 287.600,118.596 287.600 C 133.573 287.600,137.600 284.315,137.600 272.094 L 137.600 267.019 134.400 270.200 C 131.575 273.008,131.200 273.551,131.200 274.829 C 131.200 277.223,129.830 279.289,127.305 280.700 C 126.677 281.051,124.137 281.200,118.760 281.200 C 106.827 281.200,106.400 280.772,106.400 268.800 C 106.400 256.821,106.821 256.400,118.800 256.400 C 128.699 256.400,130.566 257.292,131.188 262.313 L 131.400 264.026 139.800 255.834 C 144.420 251.328,148.107 247.633,147.994 247.621 C 147.881 247.610,145.371 250.022,142.417 252.983 M143.787 260.500 L 141.400 263.000 143.900 260.613 C 146.222 258.395,146.583 258.000,146.287 258.000 C 146.226 258.000,145.101 259.125,143.787 260.500 M160.236 263.631 C 159.087 264.995,158.977 265.634,159.665 266.926 C 160.674 268.820,160.022 268.774,186.030 268.787 L 210.661 268.800 211.530 267.874 C 212.722 266.606,212.695 264.417,211.474 263.270 L 210.548 262.400 185.910 262.400 L 161.271 262.400 160.236 263.631 M120.792 266.500 C 125.335 271.172,124.736 271.109,128.410 267.300 L 131.400 264.200 128.391 267.100 C 124.700 270.656,125.362 270.726,120.808 266.300 L 117.000 262.600 120.792 266.500 M117.994 272.500 C 120.961 275.525,123.436 278.000,123.494 278.000 C 123.781 278.000,123.209 277.406,118.100 272.394 L 112.600 267.000 117.994 272.500 M128.000 276.200 C 127.028 277.190,126.323 278.000,126.433 278.000 C 126.543 278.000,127.428 277.190,128.400 276.200 C 129.372 275.210,130.077 274.400,129.967 274.400 C 129.857 274.400,128.972 275.210,128.000 276.200 M160.360 276.042 C 159.044 277.452,158.959 277.973,159.785 279.571 C 160.646 281.237,160.191 281.200,179.963 281.200 L 198.261 281.200 199.130 280.274 C 200.087 279.256,200.259 277.371,199.487 276.365 C 198.324 274.851,197.673 274.800,179.387 274.800 L 161.521 274.800 160.360 276.042 M274.991 310.800 C 274.991 329.610,275.040 337.305,275.100 327.900 C 275.160 318.495,275.160 303.105,275.100 293.700 C 275.040 284.295,274.991 291.990,274.991 310.800 M221.484 303.591 C 223.951 306.106,226.021 308.082,226.084 307.982 C 226.148 307.882,224.130 305.824,221.600 303.409 L 217.000 299.017 221.484 303.591 M203.549 304.300 C 203.050 304.936,203.065 304.949,203.706 304.446 C 204.323 303.962,204.506 304.000,205.153 304.746 C 205.560 305.216,206.039 305.600,206.217 305.600 C 206.394 305.600,206.117 305.150,205.600 304.600 C 204.484 303.412,204.270 303.381,203.549 304.300 M213.200 312.541 C 213.200 312.721,214.910 314.561,217.000 316.631 C 220.817 320.411,221.396 321.366,220.100 321.748 C 219.555 321.908,219.577 321.936,220.200 321.873 C 222.032 321.687,221.274 320.249,217.212 316.208 C 215.006 314.012,213.200 312.362,213.200 312.541 M198.643 318.633 C 198.312 319.495,198.347 321.298,198.706 321.862 C 198.868 322.116,199.000 321.351,199.000 320.162 C 199.000 317.771,198.990 317.728,198.643 318.633 M200.888 325.013 C 201.486 325.643,202.047 326.077,202.135 325.979 C 202.223 325.880,201.733 325.365,201.047 324.834 L 199.800 323.869 200.888 325.013 M203.338 326.494 C 203.592 326.656,204.340 326.788,205.000 326.788 C 205.660 326.788,206.408 326.656,206.662 326.494 C 206.916 326.332,206.168 326.200,205.000 326.200 C 203.832 326.200,203.084 326.332,203.338 326.494 " stroke="none" fill="#d8608c" fill-rule="evenodd"></path></g></svg>
